<?xml version="1.0" standalone="no"?>
<!DOCTYPE svg PUBLIC "-//W3C//DTD SVG 20010904//EN"
 "http://www.w3.org/TR/2001/REC-SVG-20010904/DTD/svg10.dtd">
<svg version="1.0" xmlns="http://www.w3.org/2000/svg"
 width="120.000000pt" height="120.000000pt" viewBox="0 0 120.000000 120.000000"
 preserveAspectRatio="xMidYMid meet">

<g transform="translate(0.000000,120.000000) scale(0.100000,-0.100000)"
fill="#000000" stroke="none">
<path d="M476 1119 c-21 -5 -66 -22 -100 -39 -221 -106 -341 -341 -294 -576
23 -118 61 -187 148 -275 54 -55 93 -84 143 -107 94 -45 97 -44 97 28 l0 60
-45 0 c-73 0 -110 21 -140 79 -14 28 -34 57 -45 63 -25 16 -26 38 -1 38 31 0
72 -39 66 -64 -2 -11 -2 -15 1 -8 4 9 12 7 31 -8 47 -37 135 -39 146 -3 2 10
8 26 12 36 6 14 2 17 -21 17 -45 0 -127 44 -161 84 -59 72 -70 183 -28 274 17
37 25 72 25 110 0 32 4 63 9 71 12 18 72 7 120 -23 27 -16 44 -20 66 -15 41 9
141 9 190 1 33 -6 46 -3 74 15 41 28 98 40 114 24 7 -7 12 -40 13 -74 1 -43 8
-75 23 -105 77 -152 -11 -336 -173 -358 l-45 -7 14 -28 c10 -19 15 -60 15
-129 0 -82 3 -102 16 -107 23 -9 155 61 212 112 181 163 229 442 111 651 -97
171 -274 275 -466 273 -48 -1 -105 -5 -127 -10z"/>
</g>
</svg>
