<?xml version="1.0" standalone="no"?>
<!DOCTYPE svg PUBLIC "-//W3C//DTD SVG 20010904//EN"
 "http://www.w3.org/TR/2001/REC-SVG-20010904/DTD/svg10.dtd">
<svg version="1.0" xmlns="http://www.w3.org/2000/svg"
 width="120.000000pt" height="120.000000pt" viewBox="0 0 120.000000 120.000000"
 preserveAspectRatio="xMidYMid meet">

<g transform="translate(0.000000,120.000000) scale(0.100000,-0.100000)"
fill="#000000" stroke="none">
<path d="M506 1109 c-98 -11 -201 -64 -280 -143 -110 -110 -157 -223 -157
-376 0 -216 116 -393 321 -487 93 -43 289 -48 385 -11 152 59 277 192 325 343
80 256 -52 537 -305 645 -37 16 -193 44 -215 39 -3 -1 -36 -5 -74 -10z m-108
-215 c16 -11 22 -25 22 -54 0 -73 -75 -106 -125 -55 -68 67 24 165 103 109z
m440 -201 c15 -11 37 -35 50 -53 21 -31 22 -43 22 -197 l0 -164 -67 3 -68 3
-5 142 c-3 92 -9 146 -17 154 -20 20 -72 15 -96 -10 -20 -20 -22 -33 -25 -157
l-4 -135 -66 3 -67 3 -3 213 -2 212 65 0 c64 0 65 0 65 -27 l0 -26 23 20 c12
11 31 26 42 32 30 17 121 8 153 -16z m-420 -195 l-3 -213 -67 -3 -68 -3 0 216
0 215 70 0 70 0 -2 -212z"/>
</g>
</svg>
