<?xml version="1.0" standalone="no"?>
<!DOCTYPE svg PUBLIC "-//W3C//DTD SVG 20010904//EN"
 "http://www.w3.org/TR/2001/REC-SVG-20010904/DTD/svg10.dtd">
<svg version="1.0" xmlns="http://www.w3.org/2000/svg"
 width="1024.000000pt" height="1024.000000pt" viewBox="0 0 1024.000000 1024.000000"
 preserveAspectRatio="xMidYMid meet">

<g transform="translate(0.000000,1024.000000) scale(0.100000,-0.100000)"
fill="#000000" stroke="none">
<path d="M5125 9724 c-22 -2 -96 -9 -165 -14 -291 -26 -654 -104 -955 -207
-186 -64 -516 -203 -702 -297 -812 -406 -1480 -1039 -1939 -1836 -317 -552
-510 -1160 -586 -1850 -20 -179 -16 -729 6 -915 52 -442 144 -817 298 -1208
449 -1143 1343 -2062 2480 -2548 1064 -455 2301 -488 3382 -90 714 264 1225
575 1690 1031 242 237 414 442 583 695 62 93 203 328 203 339 0 3 -53 -34
-117 -83 -125 -95 -298 -203 -398 -251 -97 -46 -377 -138 -545 -180 -160 -39
-327 -69 -510 -92 -138 -17 -630 -17 -775 0 -1185 138 -2179 761 -2808 1760
-78 124 -226 415 -281 552 -348 864 -374 1771 -76 2642 289 850 875 1566 1653
2022 146 86 325 172 592 286 132 56 244 106 249 110 17 16 -343 88 -584 115
-126 15 -605 28 -695 19z"/>
</g>
</svg>
