<?xml version="1.0" standalone="no"?>
<!DOCTYPE svg PUBLIC "-//W3C//DTD SVG 20010904//EN"
 "http://www.w3.org/TR/2001/REC-SVG-20010904/DTD/svg10.dtd">
<svg version="1.0" xmlns="http://www.w3.org/2000/svg"
 width="350.000000pt" height="350.000000pt" viewBox="0 0 350.000000 350.000000"
 preserveAspectRatio="xMidYMid meet">

<g transform="translate(0.000000,350.000000) scale(0.100000,-0.100000)"
fill="#000000" stroke="none">
<path d="M1688 3114 c-15 -8 -32 -23 -38 -34 -13 -25 -13 -325 0 -351 15 -27
62 -49 106 -49 28 0 44 8 70 34 l34 34 0 157 0 157 -34 34 c-27 27 -42 34 -72
34 -22 -1 -51 -7 -66 -16z"/>
<path d="M788 2742 c-42 -26 -63 -76 -49 -121 13 -45 203 -236 244 -246 39
-10 75 2 108 35 24 23 29 37 29 76 0 46 -2 49 -97 146 -54 55 -110 106 -125
114 -36 19 -77 17 -110 -4z"/>
<path d="M2605 2750 c-11 -4 -67 -56 -125 -114 -100 -101 -105 -108 -105 -149
0 -74 59 -126 128 -113 25 5 60 33 145 120 96 96 112 118 112 145 0 85 -81
143 -155 111z"/>
<path d="M1610 2425 c-148 -34 -263 -99 -366 -208 -182 -191 -237 -465 -143
-708 71 -185 213 -331 387 -397 198 -77 380 -68 572 26 78 38 109 61 175 127
167 167 232 378 190 611 -45 249 -225 452 -470 530 -102 32 -251 40 -345 19z"/>
<path d="M418 1845 c-30 -17 -58 -62 -58 -95 0 -29 26 -76 52 -94 18 -13 54
-16 181 -16 l159 0 28 29 c50 49 52 105 6 158 l-24 28 -159 2 c-126 2 -163 0
-185 -12z"/>
<path d="M2728 1843 c-67 -42 -63 -159 7 -191 34 -16 308 -16 338 -1 38 19 57
51 57 97 0 37 -6 50 -34 78 l-34 34 -153 0 c-126 0 -159 -4 -181 -17z"/>
<path d="M976 1119 c-40 -11 -223 -194 -237 -236 -24 -75 42 -151 123 -140 38
5 54 18 150 115 105 105 108 110 108 153 0 53 -21 86 -66 105 -37 16 -38 16
-78 3z"/>
<path d="M2438 1119 c-53 -20 -83 -101 -57 -152 16 -32 179 -196 211 -213 75
-39 156 4 165 89 l6 48 -114 114 c-121 121 -150 137 -211 114z"/>
<path d="M1691 806 c-44 -25 -50 -50 -51 -219 l0 -159 29 -29 c24 -24 38 -29
76 -29 40 0 52 5 81 34 l34 34 0 157 0 157 -34 34 c-27 27 -42 34 -72 34 -22
-1 -50 -7 -63 -14z"/>
</g>
</svg>
